<svg width="16" height="16" viewBox="0 0 16 16" fill="none" xmlns="http://www.w3.org/2000/svg"><path fill-rule="evenodd" clip-rule="evenodd" d="M1.6151 1.6153a.9628.9628 0 0 1 .6808-.282h11.407c.2417 0 .3402.0286.3947.0526.0577.0255.1305.074.286.2294.2072.2072.282.4323.282.6808v11.3686a.6583.6583 0 0 0-.001.0373.9626.9626 0 0 1-.9628.9628H2.2959a.963.963 0 0 1-.9627-.9628V2.296a.9628.9628 0 0 1 .282-.6807Zm14.223 12.9284a2.2959 2.2959 0 0 1-2.1363 1.4544H2.2959a2.296 2.296 0 0 1-2.296-2.2961V2.296A2.2961 2.2961 0 0 1 1.4584.1583.664.664 0 0 1 1.8896 0H13.703c.3374 0 .6429.038.9336.1664.2875.127.5011.3172.69.5061.4815.4816.6725 1.0574.6725 1.6236v11.8133a.664.664 0 0 1-.1609.4343Z" fill="#2D3440"/></svg>